<svg width="677" height="660" viewBox="0 0 677 660" fill="none" xmlns="http://www.w3.org/2000/svg">
<path d="M535.221 130.895L10 500.591H269.787M535.221 130.895V500.591H385.561M535.221 130.895L269.787 500.591M269.787 500.591H385.561M269.787 500.591L316.379 651L385.561 500.591M214.632 455.747L224.863 398.621L255.558 451.484L265.789 384.979" stroke="black" stroke-width="6" stroke-linecap="round"/>
<path d="M668.231 3H463.055L402.21 68.3684H463.055M668.231 3L580.501 68.3684M668.231 3V84M580.501 68.3684H539.466M580.501 68.3684V84L539.466 113.842M539.466 68.3684V113.842M539.466 68.3684H463.055M539.466 113.842H463.055V68.3684" stroke="black" stroke-width="6"/>
<path d="M452.516 509.893C443.137 491.988 436.755 591.859 402.211 616.472C367.666 641.086 395.611 620.878 378.337 633.525" stroke="black" stroke-width="4" stroke-linecap="round"/>
<path d="M224.011 509.893C214.632 491.988 208.25 591.859 173.706 616.472C139.161 641.086 167.106 620.878 149.832 633.525" stroke="black" stroke-width="4" stroke-linecap="round"/>
<circle cx="669.084" cy="85.7053" r="7.67368" fill="#FEB321"/>
</svg>
