<svg width="1440" height="1024" viewBox="0 0 1440 1024" fill="none" xmlns="http://www.w3.org/2000/svg">
<rect width="1440" height="1024" fill="white"/>
<path d="M1138 522C1138 739.048 962.048 915 745 915C527.952 915 352 739.048 352 522C352 304.952 527.952 129 745 129C962.048 129 1138 304.952 1138 522Z" stroke="black" stroke-width="24"/>
<path d="M815 349L507 565.797H659.344M815 349V565.797H727.237M815 349L659.344 565.797M659.344 565.797H727.237M659.344 565.797L686.667 654L727.237 565.797M627 539.5L633 506L651 537L657 498" stroke="black" stroke-width="6" stroke-linecap="round"/>
<g filter="url(#filter0_f_301_2)">
<path d="M590.773 757H589.364C589.28 756.595 589.134 756.239 588.926 755.932C588.722 755.625 588.472 755.367 588.176 755.159C587.884 754.947 587.561 754.788 587.205 754.682C586.848 754.576 586.477 754.523 586.091 754.523C585.386 754.523 584.748 754.701 584.176 755.057C583.608 755.413 583.155 755.938 582.818 756.631C582.485 757.324 582.318 758.174 582.318 759.182C582.318 760.189 582.485 761.04 582.818 761.733C583.155 762.426 583.608 762.951 584.176 763.307C584.748 763.663 585.386 763.841 586.091 763.841C586.477 763.841 586.848 763.788 587.205 763.682C587.561 763.576 587.884 763.419 588.176 763.21C588.472 762.998 588.722 762.739 588.926 762.432C589.134 762.121 589.28 761.765 589.364 761.364H590.773C590.667 761.958 590.473 762.491 590.193 762.96C589.913 763.43 589.564 763.83 589.148 764.159C588.731 764.485 588.263 764.733 587.744 764.903C587.229 765.074 586.678 765.159 586.091 765.159C585.098 765.159 584.216 764.917 583.443 764.432C582.67 763.947 582.063 763.258 581.619 762.364C581.176 761.47 580.955 760.409 580.955 759.182C580.955 757.955 581.176 756.894 581.619 756C582.063 755.106 582.67 754.417 583.443 753.932C584.216 753.447 585.098 753.205 586.091 753.205C586.678 753.205 587.229 753.29 587.744 753.46C588.263 753.631 588.731 753.881 589.148 754.21C589.564 754.536 589.913 754.934 590.193 755.403C590.473 755.869 590.667 756.402 590.773 757ZM596.413 765.182C595.625 765.182 594.934 764.994 594.339 764.619C593.749 764.244 593.286 763.72 592.953 763.045C592.624 762.371 592.459 761.583 592.459 760.682C592.459 759.773 592.624 758.979 592.953 758.301C593.286 757.623 593.749 757.097 594.339 756.722C594.934 756.347 595.625 756.159 596.413 756.159C597.201 756.159 597.891 756.347 598.482 756.722C599.076 757.097 599.538 757.623 599.868 758.301C600.201 758.979 600.368 759.773 600.368 760.682C600.368 761.583 600.201 762.371 599.868 763.045C599.538 763.72 599.076 764.244 598.482 764.619C597.891 764.994 597.201 765.182 596.413 765.182ZM596.413 763.977C597.012 763.977 597.504 763.824 597.891 763.517C598.277 763.21 598.563 762.807 598.749 762.307C598.934 761.807 599.027 761.265 599.027 760.682C599.027 760.098 598.934 759.555 598.749 759.051C598.563 758.547 598.277 758.14 597.891 757.83C597.504 757.519 597.012 757.364 596.413 757.364C595.815 757.364 595.322 757.519 594.936 757.83C594.55 758.14 594.264 758.547 594.078 759.051C593.893 759.555 593.8 760.098 593.8 760.682C593.8 761.265 593.893 761.807 594.078 762.307C594.264 762.807 594.55 763.21 594.936 763.517C595.322 763.824 595.815 763.977 596.413 763.977ZM603.756 759.75V765H602.415V756.273H603.71V757.636H603.824C604.028 757.193 604.339 756.837 604.756 756.568C605.172 756.295 605.71 756.159 606.369 756.159C606.96 756.159 607.477 756.28 607.92 756.523C608.364 756.761 608.708 757.125 608.955 757.614C609.201 758.098 609.324 758.712 609.324 759.455V765H607.983V759.545C607.983 758.86 607.805 758.326 607.449 757.943C607.093 757.557 606.604 757.364 605.983 757.364C605.555 757.364 605.172 757.456 604.835 757.642C604.502 757.828 604.239 758.098 604.045 758.455C603.852 758.811 603.756 759.242 603.756 759.75ZM613.115 759.75V765H611.774V756.273H613.07V757.636H613.183C613.388 757.193 613.698 756.837 614.115 756.568C614.532 756.295 615.07 756.159 615.729 756.159C616.32 756.159 616.837 756.28 617.28 756.523C617.723 756.761 618.068 757.125 618.314 757.614C618.56 758.098 618.683 758.712 618.683 759.455V765H617.342V759.545C617.342 758.86 617.164 758.326 616.808 757.943C616.452 757.557 615.964 757.364 615.342 757.364C614.914 757.364 614.532 757.456 614.195 757.642C613.861 757.828 613.598 758.098 613.405 758.455C613.212 758.811 613.115 759.242 613.115 759.75ZM624.793 765.182C623.952 765.182 623.226 764.996 622.616 764.625C622.01 764.25 621.543 763.727 621.213 763.057C620.887 762.383 620.724 761.598 620.724 760.705C620.724 759.811 620.887 759.023 621.213 758.341C621.543 757.655 622.001 757.121 622.588 756.739C623.179 756.352 623.868 756.159 624.656 756.159C625.111 756.159 625.56 756.235 626.003 756.386C626.446 756.538 626.849 756.784 627.213 757.125C627.577 757.462 627.866 757.909 628.082 758.466C628.298 759.023 628.406 759.708 628.406 760.523V761.091H621.679V759.932H627.043C627.043 759.439 626.944 759 626.747 758.614C626.554 758.227 626.277 757.922 625.918 757.699C625.562 757.475 625.141 757.364 624.656 757.364C624.122 757.364 623.66 757.496 623.27 757.761C622.884 758.023 622.586 758.364 622.378 758.784C622.17 759.205 622.065 759.655 622.065 760.136V760.909C622.065 761.568 622.179 762.127 622.406 762.585C622.637 763.04 622.957 763.386 623.366 763.625C623.776 763.86 624.251 763.977 624.793 763.977C625.145 763.977 625.463 763.928 625.747 763.83C626.035 763.727 626.283 763.576 626.491 763.375C626.7 763.17 626.861 762.917 626.974 762.614L628.27 762.977C628.134 763.417 627.904 763.803 627.582 764.136C627.26 764.466 626.863 764.723 626.389 764.909C625.916 765.091 625.384 765.182 624.793 765.182ZM633.991 765.182C633.173 765.182 632.469 764.989 631.878 764.602C631.287 764.216 630.832 763.684 630.514 763.006C630.196 762.328 630.037 761.553 630.037 760.682C630.037 759.795 630.2 759.013 630.526 758.335C630.855 757.653 631.313 757.121 631.901 756.739C632.491 756.352 633.181 756.159 633.969 756.159C634.582 756.159 635.135 756.273 635.628 756.5C636.12 756.727 636.524 757.045 636.838 757.455C637.152 757.864 637.348 758.341 637.423 758.886H636.082C635.98 758.489 635.753 758.136 635.401 757.83C635.052 757.519 634.582 757.364 633.991 757.364C633.469 757.364 633.01 757.5 632.616 757.773C632.226 758.042 631.921 758.422 631.702 758.915C631.486 759.403 631.378 759.977 631.378 760.636C631.378 761.311 631.484 761.898 631.696 762.398C631.912 762.898 632.215 763.286 632.605 763.562C632.999 763.839 633.461 763.977 633.991 763.977C634.34 763.977 634.656 763.917 634.94 763.795C635.224 763.674 635.465 763.5 635.662 763.273C635.859 763.045 635.999 762.773 636.082 762.455H637.423C637.348 762.97 637.16 763.434 636.861 763.847C636.565 764.256 636.173 764.581 635.685 764.824C635.2 765.062 634.635 765.182 633.991 765.182ZM643.179 756.273V757.409H638.656V756.273H643.179ZM639.974 754.182H641.315V762.5C641.315 762.879 641.37 763.163 641.48 763.352C641.594 763.538 641.738 763.663 641.912 763.727C642.09 763.788 642.277 763.818 642.474 763.818C642.622 763.818 642.743 763.811 642.838 763.795C642.933 763.777 643.009 763.761 643.065 763.75L643.338 764.955C643.247 764.989 643.12 765.023 642.957 765.057C642.795 765.095 642.588 765.114 642.338 765.114C641.959 765.114 641.588 765.032 641.224 764.869C640.865 764.706 640.565 764.458 640.327 764.125C640.092 763.792 639.974 763.371 639.974 762.864V754.182ZM648.761 765.182C647.92 765.182 647.195 764.996 646.585 764.625C645.979 764.25 645.511 763.727 645.182 763.057C644.856 762.383 644.693 761.598 644.693 760.705C644.693 759.811 644.856 759.023 645.182 758.341C645.511 757.655 645.97 757.121 646.557 756.739C647.148 756.352 647.837 756.159 648.625 756.159C649.08 756.159 649.528 756.235 649.972 756.386C650.415 756.538 650.818 756.784 651.182 757.125C651.545 757.462 651.835 757.909 652.051 758.466C652.267 759.023 652.375 759.708 652.375 760.523V761.091H645.648V759.932H651.011C651.011 759.439 650.913 759 650.716 758.614C650.523 758.227 650.246 757.922 649.886 757.699C649.53 757.475 649.11 757.364 648.625 757.364C648.091 757.364 647.629 757.496 647.239 757.761C646.852 758.023 646.555 758.364 646.347 758.784C646.138 759.205 646.034 759.655 646.034 760.136V760.909C646.034 761.568 646.148 762.127 646.375 762.585C646.606 763.04 646.926 763.386 647.335 763.625C647.744 763.86 648.22 763.977 648.761 763.977C649.114 763.977 649.432 763.928 649.716 763.83C650.004 763.727 650.252 763.576 650.46 763.375C650.669 763.17 650.83 762.917 650.943 762.614L652.239 762.977C652.102 763.417 651.873 763.803 651.551 764.136C651.229 764.466 650.831 764.723 650.358 764.909C649.884 765.091 649.352 765.182 648.761 765.182ZM657.71 765.182C656.983 765.182 656.341 764.998 655.784 764.631C655.227 764.259 654.792 763.737 654.477 763.062C654.163 762.384 654.006 761.583 654.006 760.659C654.006 759.742 654.163 758.947 654.477 758.273C654.792 757.598 655.229 757.078 655.79 756.71C656.35 756.343 656.998 756.159 657.733 756.159C658.301 756.159 658.75 756.254 659.08 756.443C659.413 756.629 659.667 756.841 659.841 757.08C660.019 757.314 660.157 757.508 660.256 757.659H660.369V753.364H661.71V765H660.415V763.659H660.256C660.157 763.818 660.017 764.019 659.835 764.261C659.653 764.5 659.394 764.714 659.057 764.903C658.72 765.089 658.271 765.182 657.71 765.182ZM657.892 763.977C658.43 763.977 658.884 763.837 659.256 763.557C659.627 763.273 659.909 762.881 660.102 762.381C660.295 761.877 660.392 761.295 660.392 760.636C660.392 759.985 660.297 759.415 660.108 758.926C659.919 758.434 659.638 758.051 659.267 757.778C658.896 757.502 658.438 757.364 657.892 757.364C657.324 757.364 656.85 757.509 656.472 757.801C656.097 758.089 655.814 758.481 655.625 758.977C655.439 759.47 655.347 760.023 655.347 760.636C655.347 761.258 655.441 761.822 655.631 762.33C655.824 762.833 656.108 763.235 656.483 763.534C656.862 763.83 657.331 763.977 657.892 763.977ZM678.398 757H676.989C676.905 756.595 676.759 756.239 676.551 755.932C676.347 755.625 676.097 755.367 675.801 755.159C675.509 754.947 675.186 754.788 674.83 754.682C674.473 754.576 674.102 754.523 673.716 754.523C673.011 754.523 672.373 754.701 671.801 755.057C671.233 755.413 670.78 755.938 670.443 756.631C670.11 757.324 669.943 758.174 669.943 759.182C669.943 760.189 670.11 761.04 670.443 761.733C670.78 762.426 671.233 762.951 671.801 763.307C672.373 763.663 673.011 763.841 673.716 763.841C674.102 763.841 674.473 763.788 674.83 763.682C675.186 763.576 675.509 763.419 675.801 763.21C676.097 762.998 676.347 762.739 676.551 762.432C676.759 762.121 676.905 761.765 676.989 761.364H678.398C678.292 761.958 678.098 762.491 677.818 762.96C677.538 763.43 677.189 763.83 676.773 764.159C676.356 764.485 675.888 764.733 675.369 764.903C674.854 765.074 674.303 765.159 673.716 765.159C672.723 765.159 671.841 764.917 671.068 764.432C670.295 763.947 669.688 763.258 669.244 762.364C668.801 761.47 668.58 760.409 668.58 759.182C668.58 757.955 668.801 756.894 669.244 756C669.688 755.106 670.295 754.417 671.068 753.932C671.841 753.447 672.723 753.205 673.716 753.205C674.303 753.205 674.854 753.29 675.369 753.46C675.888 753.631 676.356 753.881 676.773 754.21C677.189 754.536 677.538 754.934 677.818 755.403C678.098 755.869 678.292 756.402 678.398 757ZM681.834 753.364V765H680.493V753.364H681.834ZM686.858 765.205C686.305 765.205 685.803 765.1 685.352 764.892C684.902 764.68 684.544 764.375 684.278 763.977C684.013 763.576 683.881 763.091 683.881 762.523C683.881 762.023 683.979 761.617 684.176 761.307C684.373 760.992 684.636 760.746 684.966 760.568C685.295 760.39 685.659 760.258 686.057 760.17C686.458 760.08 686.862 760.008 687.267 759.955C687.797 759.886 688.227 759.835 688.557 759.801C688.89 759.763 689.133 759.701 689.284 759.614C689.439 759.527 689.517 759.375 689.517 759.159V759.114C689.517 758.553 689.364 758.117 689.057 757.807C688.754 757.496 688.294 757.341 687.676 757.341C687.036 757.341 686.534 757.481 686.17 757.761C685.807 758.042 685.551 758.341 685.403 758.659L684.131 758.205C684.358 757.674 684.661 757.261 685.04 756.966C685.422 756.667 685.839 756.458 686.29 756.341C686.744 756.22 687.191 756.159 687.631 756.159C687.911 756.159 688.233 756.193 688.597 756.261C688.964 756.326 689.318 756.46 689.659 756.665C690.004 756.869 690.29 757.178 690.517 757.591C690.744 758.004 690.858 758.557 690.858 759.25V765H689.517V763.818H689.449C689.358 764.008 689.206 764.21 688.994 764.426C688.782 764.642 688.5 764.826 688.148 764.977C687.795 765.129 687.366 765.205 686.858 765.205ZM687.062 764C687.593 764 688.04 763.896 688.403 763.688C688.771 763.479 689.047 763.21 689.233 762.881C689.422 762.551 689.517 762.205 689.517 761.841V760.614C689.46 760.682 689.335 760.744 689.142 760.801C688.953 760.854 688.733 760.902 688.483 760.943C688.237 760.981 687.996 761.015 687.761 761.045C687.53 761.072 687.343 761.095 687.199 761.114C686.85 761.159 686.525 761.233 686.222 761.335C685.922 761.434 685.68 761.583 685.494 761.784C685.313 761.981 685.222 762.25 685.222 762.591C685.222 763.057 685.394 763.409 685.739 763.648C686.087 763.883 686.528 764 687.062 764ZM699.487 758.227L698.283 758.568C698.207 758.367 698.095 758.172 697.947 757.983C697.804 757.79 697.607 757.631 697.357 757.506C697.107 757.381 696.786 757.318 696.396 757.318C695.862 757.318 695.417 757.441 695.061 757.688C694.709 757.93 694.533 758.239 694.533 758.614C694.533 758.947 694.654 759.21 694.896 759.403C695.139 759.597 695.518 759.758 696.033 759.886L697.328 760.205C698.108 760.394 698.69 760.684 699.072 761.074C699.455 761.46 699.646 761.958 699.646 762.568C699.646 763.068 699.502 763.515 699.214 763.909C698.93 764.303 698.533 764.614 698.021 764.841C697.51 765.068 696.915 765.182 696.237 765.182C695.347 765.182 694.61 764.989 694.027 764.602C693.444 764.216 693.074 763.652 692.919 762.909L694.192 762.591C694.313 763.061 694.542 763.413 694.879 763.648C695.22 763.883 695.665 764 696.214 764C696.839 764 697.336 763.867 697.703 763.602C698.074 763.333 698.26 763.011 698.26 762.636C698.26 762.333 698.154 762.08 697.942 761.875C697.73 761.667 697.404 761.511 696.964 761.409L695.51 761.068C694.711 760.879 694.124 760.585 693.749 760.188C693.377 759.786 693.192 759.284 693.192 758.682C693.192 758.189 693.33 757.754 693.607 757.375C693.887 756.996 694.268 756.699 694.749 756.483C695.233 756.267 695.783 756.159 696.396 756.159C697.26 756.159 697.938 756.348 698.43 756.727C698.927 757.106 699.279 757.606 699.487 758.227ZM707.847 758.227L706.642 758.568C706.566 758.367 706.455 758.172 706.307 757.983C706.163 757.79 705.966 757.631 705.716 757.506C705.466 757.381 705.146 757.318 704.756 757.318C704.222 757.318 703.777 757.441 703.42 757.688C703.068 757.93 702.892 758.239 702.892 758.614C702.892 758.947 703.013 759.21 703.256 759.403C703.498 759.597 703.877 759.758 704.392 759.886L705.688 760.205C706.468 760.394 707.049 760.684 707.432 761.074C707.814 761.46 708.006 761.958 708.006 762.568C708.006 763.068 707.862 763.515 707.574 763.909C707.29 764.303 706.892 764.614 706.381 764.841C705.869 765.068 705.275 765.182 704.597 765.182C703.706 765.182 702.97 764.989 702.386 764.602C701.803 764.216 701.434 763.652 701.278 762.909L702.551 762.591C702.672 763.061 702.902 763.413 703.239 763.648C703.58 763.883 704.025 764 704.574 764C705.199 764 705.695 763.867 706.062 763.602C706.434 763.333 706.619 763.011 706.619 762.636C706.619 762.333 706.513 762.08 706.301 761.875C706.089 761.667 705.763 761.511 705.324 761.409L703.869 761.068C703.07 760.879 702.483 760.585 702.108 760.188C701.737 759.786 701.551 759.284 701.551 758.682C701.551 758.189 701.689 757.754 701.966 757.375C702.246 756.996 702.627 756.699 703.108 756.483C703.593 756.267 704.142 756.159 704.756 756.159C705.619 756.159 706.297 756.348 706.79 756.727C707.286 757.106 707.638 757.606 707.847 758.227ZM710.024 765V756.273H711.32V757.591H711.411C711.57 757.159 711.857 756.809 712.274 756.54C712.691 756.271 713.161 756.136 713.683 756.136C713.782 756.136 713.905 756.138 714.053 756.142C714.2 756.146 714.312 756.152 714.388 756.159V757.523C714.342 757.511 714.238 757.494 714.075 757.472C713.916 757.445 713.748 757.432 713.57 757.432C713.145 757.432 712.767 757.521 712.433 757.699C712.104 757.873 711.842 758.116 711.649 758.426C711.46 758.733 711.365 759.083 711.365 759.477V765H710.024ZM719.257 765.182C718.469 765.182 717.778 764.994 717.183 764.619C716.592 764.244 716.13 763.72 715.797 763.045C715.467 762.371 715.303 761.583 715.303 760.682C715.303 759.773 715.467 758.979 715.797 758.301C716.13 757.623 716.592 757.097 717.183 756.722C717.778 756.347 718.469 756.159 719.257 756.159C720.045 756.159 720.734 756.347 721.325 756.722C721.92 757.097 722.382 757.623 722.712 758.301C723.045 758.979 723.212 759.773 723.212 760.682C723.212 761.583 723.045 762.371 722.712 763.045C722.382 763.72 721.92 764.244 721.325 764.619C720.734 764.994 720.045 765.182 719.257 765.182ZM719.257 763.977C719.856 763.977 720.348 763.824 720.734 763.517C721.121 763.21 721.407 762.807 721.592 762.307C721.778 761.807 721.871 761.265 721.871 760.682C721.871 760.098 721.778 759.555 721.592 759.051C721.407 758.547 721.121 758.14 720.734 757.83C720.348 757.519 719.856 757.364 719.257 757.364C718.659 757.364 718.166 757.519 717.78 757.83C717.393 758.14 717.107 758.547 716.922 759.051C716.736 759.555 716.643 760.098 716.643 760.682C716.643 761.265 716.736 761.807 716.922 762.307C717.107 762.807 717.393 763.21 717.78 763.517C718.166 763.824 718.659 763.977 719.257 763.977ZM728.804 765.182C728.016 765.182 727.325 764.994 726.73 764.619C726.139 764.244 725.677 763.72 725.344 763.045C725.014 762.371 724.849 761.583 724.849 760.682C724.849 759.773 725.014 758.979 725.344 758.301C725.677 757.623 726.139 757.097 726.73 756.722C727.325 756.347 728.016 756.159 728.804 756.159C729.592 756.159 730.281 756.347 730.872 756.722C731.467 757.097 731.929 757.623 732.259 758.301C732.592 758.979 732.759 759.773 732.759 760.682C732.759 761.583 732.592 762.371 732.259 763.045C731.929 763.72 731.467 764.244 730.872 764.619C730.281 764.994 729.592 765.182 728.804 765.182ZM728.804 763.977C729.402 763.977 729.895 763.824 730.281 763.517C730.668 763.21 730.954 762.807 731.139 762.307C731.325 761.807 731.418 761.265 731.418 760.682C731.418 760.098 731.325 759.555 731.139 759.051C730.954 758.547 730.668 758.14 730.281 757.83C729.895 757.519 729.402 757.364 728.804 757.364C728.205 757.364 727.713 757.519 727.327 757.83C726.94 758.14 726.654 758.547 726.469 759.051C726.283 759.555 726.19 760.098 726.19 760.682C726.19 761.265 726.283 761.807 726.469 762.307C726.654 762.807 726.94 763.21 727.327 763.517C727.713 763.824 728.205 763.977 728.804 763.977ZM734.805 765V756.273H736.101V757.636H736.214C736.396 757.17 736.69 756.809 737.095 756.551C737.5 756.29 737.987 756.159 738.555 756.159C739.131 756.159 739.61 756.29 739.993 756.551C740.379 756.809 740.68 757.17 740.896 757.636H740.987C741.211 757.186 741.546 756.828 741.993 756.562C742.44 756.294 742.976 756.159 743.601 756.159C744.381 756.159 745.019 756.403 745.516 756.892C746.012 757.377 746.26 758.133 746.26 759.159V765H744.919V759.159C744.919 758.515 744.743 758.055 744.391 757.778C744.038 757.502 743.624 757.364 743.146 757.364C742.533 757.364 742.057 757.549 741.72 757.92C741.383 758.288 741.214 758.754 741.214 759.318V765H739.851V759.023C739.851 758.527 739.69 758.127 739.368 757.824C739.046 757.517 738.631 757.364 738.124 757.364C737.775 757.364 737.449 757.456 737.146 757.642C736.847 757.828 736.605 758.085 736.419 758.415C736.237 758.741 736.146 759.117 736.146 759.545V765H734.805ZM754.893 758.227L753.689 758.568C753.613 758.367 753.501 758.172 753.354 757.983C753.21 757.79 753.013 757.631 752.763 757.506C752.513 757.381 752.193 757.318 751.803 757.318C751.268 757.318 750.823 757.441 750.467 757.688C750.115 757.93 749.939 758.239 749.939 758.614C749.939 758.947 750.06 759.21 750.303 759.403C750.545 759.597 750.924 759.758 751.439 759.886L752.734 760.205C753.515 760.394 754.096 760.684 754.479 761.074C754.861 761.46 755.053 761.958 755.053 762.568C755.053 763.068 754.909 763.515 754.621 763.909C754.337 764.303 753.939 764.614 753.428 764.841C752.916 765.068 752.321 765.182 751.643 765.182C750.753 765.182 750.017 764.989 749.433 764.602C748.85 764.216 748.481 763.652 748.325 762.909L749.598 762.591C749.719 763.061 749.948 763.413 750.286 763.648C750.626 763.883 751.071 764 751.621 764C752.246 764 752.742 763.867 753.109 763.602C753.481 763.333 753.666 763.011 753.666 762.636C753.666 762.333 753.56 762.08 753.348 761.875C753.136 761.667 752.81 761.511 752.371 761.409L750.916 761.068C750.117 760.879 749.53 760.585 749.155 760.188C748.784 759.786 748.598 759.284 748.598 758.682C748.598 758.189 748.736 757.754 749.013 757.375C749.293 756.996 749.674 756.699 750.155 756.483C750.64 756.267 751.189 756.159 751.803 756.159C752.666 756.159 753.344 756.348 753.837 756.727C754.333 757.106 754.685 757.606 754.893 758.227ZM759.071 763.409L758.98 764.023C758.916 764.455 758.817 764.917 758.685 765.409C758.556 765.902 758.421 766.366 758.281 766.801C758.141 767.237 758.026 767.583 757.935 767.841H756.912C756.961 767.598 757.026 767.278 757.105 766.881C757.185 766.483 757.264 766.038 757.344 765.545C757.427 765.057 757.495 764.557 757.548 764.045L757.616 763.409H759.071ZM767.646 753.364V765H766.237V753.364H767.646ZM771.631 759.75V765H770.29V756.273H771.585V757.636H771.699C771.903 757.193 772.214 756.837 772.631 756.568C773.047 756.295 773.585 756.159 774.244 756.159C774.835 756.159 775.352 756.28 775.795 756.523C776.239 756.761 776.583 757.125 776.83 757.614C777.076 758.098 777.199 758.712 777.199 759.455V765H775.858V759.545C775.858 758.86 775.68 758.326 775.324 757.943C774.968 757.557 774.479 757.364 773.858 757.364C773.43 757.364 773.047 757.456 772.71 757.642C772.377 757.828 772.114 758.098 771.92 758.455C771.727 758.811 771.631 759.242 771.631 759.75ZM783.536 756.273V757.409H778.831V756.273H783.536ZM780.24 765V755.068C780.24 754.568 780.357 754.152 780.592 753.818C780.827 753.485 781.132 753.235 781.507 753.068C781.882 752.902 782.278 752.818 782.695 752.818C783.024 752.818 783.293 752.845 783.501 752.898C783.71 752.951 783.865 753 783.967 753.045L783.581 754.205C783.513 754.182 783.418 754.153 783.297 754.119C783.179 754.085 783.024 754.068 782.831 754.068C782.388 754.068 782.068 754.18 781.871 754.403C781.678 754.627 781.581 754.955 781.581 755.386V765H780.24ZM788.601 765.182C787.813 765.182 787.122 764.994 786.527 764.619C785.936 764.244 785.474 763.72 785.141 763.045C784.811 762.371 784.646 761.583 784.646 760.682C784.646 759.773 784.811 758.979 785.141 758.301C785.474 757.623 785.936 757.097 786.527 756.722C787.122 756.347 787.813 756.159 788.601 756.159C789.389 756.159 790.078 756.347 790.669 756.722C791.264 757.097 791.726 757.623 792.055 758.301C792.389 758.979 792.555 759.773 792.555 760.682C792.555 761.583 792.389 762.371 792.055 763.045C791.726 763.72 791.264 764.244 790.669 764.619C790.078 764.994 789.389 765.182 788.601 765.182ZM788.601 763.977C789.199 763.977 789.692 763.824 790.078 763.517C790.464 763.21 790.75 762.807 790.936 762.307C791.122 761.807 791.214 761.265 791.214 760.682C791.214 760.098 791.122 759.555 790.936 759.051C790.75 758.547 790.464 758.14 790.078 757.83C789.692 757.519 789.199 757.364 788.601 757.364C788.002 757.364 787.51 757.519 787.124 757.83C786.737 758.14 786.451 758.547 786.266 759.051C786.08 759.555 785.987 760.098 785.987 760.682C785.987 761.265 786.08 761.807 786.266 762.307C786.451 762.807 786.737 763.21 787.124 763.517C787.51 763.824 788.002 763.977 788.601 763.977ZM794.602 765V756.273H795.898V757.591H795.989C796.148 757.159 796.436 756.809 796.852 756.54C797.269 756.271 797.739 756.136 798.261 756.136C798.36 756.136 798.483 756.138 798.631 756.142C798.778 756.146 798.89 756.152 798.966 756.159V757.523C798.92 757.511 798.816 757.494 798.653 757.472C798.494 757.445 798.326 757.432 798.148 757.432C797.723 757.432 797.345 757.521 797.011 757.699C796.682 757.873 796.42 758.116 796.227 758.426C796.038 758.733 795.943 759.083 795.943 759.477V765H794.602ZM800.555 765V756.273H801.851V757.636H801.964C802.146 757.17 802.44 756.809 802.845 756.551C803.25 756.29 803.737 756.159 804.305 756.159C804.881 756.159 805.36 756.29 805.743 756.551C806.129 756.809 806.43 757.17 806.646 757.636H806.737C806.961 757.186 807.296 756.828 807.743 756.562C808.19 756.294 808.726 756.159 809.351 756.159C810.131 756.159 810.769 756.403 811.266 756.892C811.762 757.377 812.01 758.133 812.01 759.159V765H810.669V759.159C810.669 758.515 810.493 758.055 810.141 757.778C809.788 757.502 809.374 757.364 808.896 757.364C808.283 757.364 807.807 757.549 807.47 757.92C807.133 758.288 806.964 758.754 806.964 759.318V765H805.601V759.023C805.601 758.527 805.44 758.127 805.118 757.824C804.796 757.517 804.381 757.364 803.874 757.364C803.525 757.364 803.199 757.456 802.896 757.642C802.597 757.828 802.355 758.085 802.169 758.415C801.987 758.741 801.896 759.117 801.896 759.545V765H800.555ZM818.121 765.182C817.28 765.182 816.554 764.996 815.945 764.625C815.339 764.25 814.871 763.727 814.541 763.057C814.215 762.383 814.053 761.598 814.053 760.705C814.053 759.811 814.215 759.023 814.541 758.341C814.871 757.655 815.329 757.121 815.916 756.739C816.507 756.352 817.196 756.159 817.984 756.159C818.439 756.159 818.888 756.235 819.331 756.386C819.774 756.538 820.178 756.784 820.541 757.125C820.905 757.462 821.195 757.909 821.411 758.466C821.626 759.023 821.734 759.708 821.734 760.523V761.091H815.007V759.932H820.371C820.371 759.439 820.272 759 820.075 758.614C819.882 758.227 819.606 757.922 819.246 757.699C818.89 757.475 818.469 757.364 817.984 757.364C817.45 757.364 816.988 757.496 816.598 757.761C816.212 758.023 815.914 758.364 815.706 758.784C815.498 759.205 815.393 759.655 815.393 760.136V760.909C815.393 761.568 815.507 762.127 815.734 762.585C815.965 763.04 816.286 763.386 816.695 763.625C817.104 763.86 817.579 763.977 818.121 763.977C818.473 763.977 818.791 763.928 819.075 763.83C819.363 763.727 819.611 763.576 819.82 763.375C820.028 763.17 820.189 762.917 820.303 762.614L821.598 762.977C821.462 763.417 821.232 763.803 820.911 764.136C820.589 764.466 820.191 764.723 819.717 764.909C819.244 765.091 818.712 765.182 818.121 765.182ZM827.07 765.182C826.342 765.182 825.7 764.998 825.143 764.631C824.587 764.259 824.151 763.737 823.837 763.062C823.522 762.384 823.365 761.583 823.365 760.659C823.365 759.742 823.522 758.947 823.837 758.273C824.151 757.598 824.589 757.078 825.149 756.71C825.71 756.343 826.357 756.159 827.092 756.159C827.661 756.159 828.109 756.254 828.439 756.443C828.772 756.629 829.026 756.841 829.2 757.08C829.378 757.314 829.517 757.508 829.615 757.659H829.729V753.364H831.07V765H829.774V763.659H829.615C829.517 763.818 829.376 764.019 829.195 764.261C829.013 764.5 828.753 764.714 828.416 764.903C828.079 765.089 827.63 765.182 827.07 765.182ZM827.251 763.977C827.789 763.977 828.244 763.837 828.615 763.557C828.986 763.273 829.268 762.881 829.462 762.381C829.655 761.877 829.751 761.295 829.751 760.636C829.751 759.985 829.657 759.415 829.467 758.926C829.278 758.434 828.998 758.051 828.626 757.778C828.255 757.502 827.797 757.364 827.251 757.364C826.683 757.364 826.21 757.509 825.831 757.801C825.456 758.089 825.174 758.481 824.984 758.977C824.799 759.47 824.706 760.023 824.706 760.636C824.706 761.258 824.801 761.822 824.99 762.33C825.183 762.833 825.467 763.235 825.842 763.534C826.221 763.83 826.691 763.977 827.251 763.977ZM844.757 756.273C844.689 755.697 844.412 755.25 843.928 754.932C843.443 754.614 842.848 754.455 842.143 754.455C841.628 754.455 841.178 754.538 840.791 754.705C840.409 754.871 840.109 755.1 839.893 755.392C839.681 755.684 839.575 756.015 839.575 756.386C839.575 756.697 839.649 756.964 839.797 757.188C839.948 757.407 840.142 757.591 840.376 757.739C840.611 757.883 840.857 758.002 841.115 758.097C841.373 758.187 841.609 758.261 841.825 758.318L843.007 758.636C843.31 758.716 843.647 758.826 844.018 758.966C844.393 759.106 844.751 759.297 845.092 759.54C845.437 759.778 845.721 760.085 845.945 760.46C846.168 760.835 846.28 761.295 846.28 761.841C846.28 762.47 846.115 763.038 845.786 763.545C845.46 764.053 844.982 764.456 844.354 764.756C843.729 765.055 842.969 765.205 842.075 765.205C841.242 765.205 840.52 765.07 839.911 764.801C839.304 764.532 838.827 764.157 838.479 763.676C838.134 763.195 837.939 762.636 837.893 762H839.348C839.386 762.439 839.534 762.803 839.791 763.091C840.053 763.375 840.382 763.587 840.78 763.727C841.181 763.864 841.613 763.932 842.075 763.932C842.613 763.932 843.096 763.845 843.524 763.67C843.952 763.492 844.291 763.246 844.541 762.932C844.791 762.614 844.916 762.242 844.916 761.818C844.916 761.432 844.808 761.117 844.592 760.875C844.376 760.633 844.092 760.436 843.74 760.284C843.388 760.133 843.007 760 842.598 759.886L841.166 759.477C840.257 759.216 839.537 758.843 839.007 758.358C838.477 757.873 838.212 757.239 838.212 756.455C838.212 755.803 838.388 755.235 838.74 754.75C839.096 754.261 839.573 753.883 840.172 753.614C840.774 753.341 841.446 753.205 842.189 753.205C842.939 753.205 843.606 753.339 844.189 753.608C844.772 753.873 845.234 754.237 845.575 754.699C845.92 755.161 846.102 755.686 846.121 756.273H844.757ZM852.21 756.273V757.409H847.688V756.273H852.21ZM849.006 754.182H850.347V762.5C850.347 762.879 850.402 763.163 850.511 763.352C850.625 763.538 850.769 763.663 850.943 763.727C851.121 763.788 851.309 763.818 851.506 763.818C851.653 763.818 851.775 763.811 851.869 763.795C851.964 763.777 852.04 763.761 852.097 763.75L852.369 764.955C852.278 764.989 852.152 765.023 851.989 765.057C851.826 765.095 851.619 765.114 851.369 765.114C850.991 765.114 850.619 765.032 850.256 764.869C849.896 764.706 849.597 764.458 849.358 764.125C849.123 763.792 849.006 763.371 849.006 762.864V754.182ZM859.727 761.432V756.273H861.068V765H859.727V763.523H859.636C859.432 763.966 859.114 764.343 858.682 764.653C858.25 764.96 857.705 765.114 857.045 765.114C856.5 765.114 856.015 764.994 855.591 764.756C855.167 764.513 854.833 764.15 854.591 763.665C854.348 763.176 854.227 762.561 854.227 761.818V756.273H855.568V761.727C855.568 762.364 855.746 762.871 856.102 763.25C856.462 763.629 856.92 763.818 857.477 763.818C857.811 763.818 858.15 763.733 858.494 763.562C858.843 763.392 859.134 763.131 859.369 762.778C859.608 762.426 859.727 761.977 859.727 761.432ZM866.82 765.182C866.092 765.182 865.45 764.998 864.893 764.631C864.337 764.259 863.901 763.737 863.587 763.062C863.272 762.384 863.115 761.583 863.115 760.659C863.115 759.742 863.272 758.947 863.587 758.273C863.901 757.598 864.339 757.078 864.899 756.71C865.46 756.343 866.107 756.159 866.842 756.159C867.411 756.159 867.859 756.254 868.189 756.443C868.522 756.629 868.776 756.841 868.95 757.08C869.128 757.314 869.267 757.508 869.365 757.659H869.479V753.364H870.82V765H869.524V763.659H869.365C869.267 763.818 869.126 764.019 868.945 764.261C868.763 764.5 868.503 764.714 868.166 764.903C867.829 765.089 867.38 765.182 866.82 765.182ZM867.001 763.977C867.539 763.977 867.994 763.837 868.365 763.557C868.736 763.273 869.018 762.881 869.212 762.381C869.405 761.877 869.501 761.295 869.501 760.636C869.501 759.985 869.407 759.415 869.217 758.926C869.028 758.434 868.748 758.051 868.376 757.778C868.005 757.502 867.547 757.364 867.001 757.364C866.433 757.364 865.96 757.509 865.581 757.801C865.206 758.089 864.924 758.481 864.734 758.977C864.549 759.47 864.456 760.023 864.456 760.636C864.456 761.258 864.551 761.822 864.74 762.33C864.933 762.833 865.217 763.235 865.592 763.534C865.971 763.83 866.441 763.977 867.001 763.977ZM877.121 765.182C876.28 765.182 875.554 764.996 874.945 764.625C874.339 764.25 873.871 763.727 873.541 763.057C873.215 762.383 873.053 761.598 873.053 760.705C873.053 759.811 873.215 759.023 873.541 758.341C873.871 757.655 874.329 757.121 874.916 756.739C875.507 756.352 876.196 756.159 876.984 756.159C877.439 756.159 877.888 756.235 878.331 756.386C878.774 756.538 879.178 756.784 879.541 757.125C879.905 757.462 880.195 757.909 880.411 758.466C880.626 759.023 880.734 759.708 880.734 760.523V761.091H874.007V759.932H879.371C879.371 759.439 879.272 759 879.075 758.614C878.882 758.227 878.606 757.922 878.246 757.699C877.89 757.475 877.469 757.364 876.984 757.364C876.45 757.364 875.988 757.496 875.598 757.761C875.212 758.023 874.914 758.364 874.706 758.784C874.498 759.205 874.393 759.655 874.393 760.136V760.909C874.393 761.568 874.507 762.127 874.734 762.585C874.965 763.04 875.286 763.386 875.695 763.625C876.104 763.86 876.579 763.977 877.121 763.977C877.473 763.977 877.791 763.928 878.075 763.83C878.363 763.727 878.611 763.576 878.82 763.375C879.028 763.17 879.189 762.917 879.303 762.614L880.598 762.977C880.462 763.417 880.232 763.803 879.911 764.136C879.589 764.466 879.191 764.723 878.717 764.909C878.244 765.091 877.712 765.182 877.121 765.182ZM884.115 759.75V765H882.774V756.273H884.07V757.636H884.183C884.388 757.193 884.698 756.837 885.115 756.568C885.532 756.295 886.07 756.159 886.729 756.159C887.32 756.159 887.837 756.28 888.28 756.523C888.723 756.761 889.068 757.125 889.314 757.614C889.56 758.098 889.683 758.712 889.683 759.455V765H888.342V759.545C888.342 758.86 888.164 758.326 887.808 757.943C887.452 757.557 886.964 757.364 886.342 757.364C885.914 757.364 885.532 757.456 885.195 757.642C884.861 757.828 884.598 758.098 884.405 758.455C884.212 758.811 884.115 759.242 884.115 759.75ZM895.929 756.273V757.409H891.406V756.273H895.929ZM892.724 754.182H894.065V762.5C894.065 762.879 894.12 763.163 894.23 763.352C894.344 763.538 894.488 763.663 894.662 763.727C894.84 763.788 895.027 763.818 895.224 763.818C895.372 763.818 895.493 763.811 895.588 763.795C895.683 763.777 895.759 763.761 895.815 763.75L896.088 764.955C895.997 764.989 895.87 765.023 895.707 765.057C895.545 765.095 895.338 765.114 895.088 765.114C894.709 765.114 894.338 765.032 893.974 764.869C893.615 764.706 893.315 764.458 893.077 764.125C892.842 763.792 892.724 763.371 892.724 762.864V754.182ZM903.972 758.227L902.767 758.568C902.691 758.367 902.58 758.172 902.432 757.983C902.288 757.79 902.091 757.631 901.841 757.506C901.591 757.381 901.271 757.318 900.881 757.318C900.347 757.318 899.902 757.441 899.545 757.688C899.193 757.93 899.017 758.239 899.017 758.614C899.017 758.947 899.138 759.21 899.381 759.403C899.623 759.597 900.002 759.758 900.517 759.886L901.812 760.205C902.593 760.394 903.174 760.684 903.557 761.074C903.939 761.46 904.131 761.958 904.131 762.568C904.131 763.068 903.987 763.515 903.699 763.909C903.415 764.303 903.017 764.614 902.506 764.841C901.994 765.068 901.4 765.182 900.722 765.182C899.831 765.182 899.095 764.989 898.511 764.602C897.928 764.216 897.559 763.652 897.403 762.909L898.676 762.591C898.797 763.061 899.027 763.413 899.364 763.648C899.705 763.883 900.15 764 900.699 764C901.324 764 901.82 763.867 902.188 763.602C902.559 763.333 902.744 763.011 902.744 762.636C902.744 762.333 902.638 762.08 902.426 761.875C902.214 761.667 901.888 761.511 901.449 761.409L899.994 761.068C899.195 760.879 898.608 760.585 898.233 760.188C897.862 759.786 897.676 759.284 897.676 758.682C897.676 758.189 897.814 757.754 898.091 757.375C898.371 756.996 898.752 756.699 899.233 756.483C899.718 756.267 900.267 756.159 900.881 756.159C901.744 756.159 902.422 756.348 902.915 756.727C903.411 757.106 903.763 757.606 903.972 758.227ZM907.126 765.091C906.846 765.091 906.606 764.991 906.405 764.79C906.204 764.589 906.104 764.348 906.104 764.068C906.104 763.788 906.204 763.547 906.405 763.347C906.606 763.146 906.846 763.045 907.126 763.045C907.407 763.045 907.647 763.146 907.848 763.347C908.049 763.547 908.149 763.788 908.149 764.068C908.149 764.254 908.102 764.424 908.007 764.58C907.916 764.735 907.793 764.86 907.638 764.955C907.486 765.045 907.316 765.091 907.126 765.091Z" fill="black"/>
</g>
<g filter="url(#filter1_f_301_2)">
<path d="M647.932 694.368V720.55H644.864L630.597 699.993H630.341V720.55H627.17V694.368H630.239L644.557 714.976H644.812V694.368H647.932ZM662.1 720.959C660.208 720.959 658.576 720.542 657.203 719.707C655.84 718.863 654.787 717.687 654.046 716.178C653.313 714.661 652.946 712.897 652.946 710.886C652.946 708.874 653.313 707.101 654.046 705.567C654.787 704.025 655.819 702.823 657.14 701.962C658.469 701.093 660.02 700.658 661.793 700.658C662.816 700.658 663.826 700.829 664.823 701.17C665.82 701.511 666.728 702.064 667.546 702.832C668.364 703.59 669.016 704.596 669.502 705.849C669.988 707.101 670.23 708.644 670.23 710.476V711.755H655.094V709.147H667.162C667.162 708.039 666.941 707.05 666.498 706.181C666.063 705.312 665.441 704.626 664.631 704.123C663.83 703.62 662.884 703.368 661.793 703.368C660.591 703.368 659.551 703.667 658.674 704.263C657.804 704.851 657.135 705.618 656.667 706.564C656.198 707.511 655.963 708.525 655.963 709.607V711.346C655.963 712.829 656.219 714.086 656.73 715.117C657.25 716.14 657.971 716.92 658.891 717.457C659.811 717.985 660.881 718.249 662.1 718.249C662.892 718.249 663.608 718.138 664.248 717.917C664.895 717.687 665.453 717.346 665.922 716.894C666.391 716.434 666.753 715.863 667.009 715.181L669.924 715.999C669.617 716.988 669.101 717.857 668.377 718.607C667.652 719.349 666.757 719.928 665.692 720.346C664.627 720.755 663.429 720.959 662.1 720.959ZM679.269 720.55L673.286 700.914H676.456L680.701 715.948H680.905L685.098 700.914H688.32L692.462 715.897H692.667L696.911 700.914H700.081L694.098 720.55H691.132L686.837 705.465H686.53L682.235 720.55H679.269ZM717.979 705.312L715.269 706.079C715.098 705.627 714.847 705.188 714.515 704.762C714.191 704.327 713.748 703.969 713.185 703.688C712.623 703.407 711.902 703.266 711.025 703.266C709.823 703.266 708.821 703.543 708.02 704.097C707.228 704.643 706.831 705.337 706.831 706.181C706.831 706.931 707.104 707.523 707.65 707.958C708.195 708.393 709.047 708.755 710.206 709.045L713.121 709.761C714.877 710.187 716.185 710.839 717.046 711.716C717.907 712.586 718.337 713.707 718.337 715.079C718.337 716.204 718.013 717.209 717.365 718.096C716.726 718.982 715.831 719.681 714.681 720.192C713.53 720.704 712.192 720.959 710.667 720.959C708.664 720.959 707.006 720.525 705.694 719.655C704.381 718.786 703.55 717.516 703.201 715.846L706.064 715.13C706.337 716.187 706.853 716.979 707.611 717.508C708.378 718.036 709.38 718.3 710.615 718.3C712.022 718.3 713.138 718.002 713.965 717.405C714.8 716.8 715.218 716.076 715.218 715.232C715.218 714.55 714.979 713.979 714.502 713.519C714.025 713.05 713.292 712.701 712.303 712.471L709.03 711.704C707.232 711.278 705.911 710.617 705.067 709.722C704.232 708.819 703.814 707.689 703.814 706.334C703.814 705.226 704.125 704.246 704.748 703.394C705.378 702.542 706.235 701.873 707.317 701.387C708.408 700.901 709.644 700.658 711.025 700.658C712.968 700.658 714.493 701.084 715.601 701.937C716.718 702.789 717.51 703.914 717.979 705.312ZM723.288 720.55V694.368H738.987V697.181H726.458V706.028H737.81V708.84H726.458V720.55H723.288ZM747.025 694.368V720.55H744.007V694.368H747.025ZM758.329 721.011C757.085 721.011 755.955 720.776 754.941 720.307C753.927 719.83 753.121 719.144 752.525 718.249C751.928 717.346 751.63 716.255 751.63 714.976C751.63 713.851 751.852 712.939 752.295 712.241C752.738 711.533 753.33 710.979 754.072 710.579C754.813 710.178 755.631 709.88 756.526 709.684C757.43 709.479 758.337 709.317 759.249 709.198C760.442 709.045 761.41 708.93 762.151 708.853C762.901 708.768 763.447 708.627 763.788 708.431C764.137 708.235 764.312 707.894 764.312 707.408V707.306C764.312 706.045 763.967 705.064 763.276 704.366C762.594 703.667 761.559 703.317 760.17 703.317C758.729 703.317 757.6 703.633 756.782 704.263C755.964 704.894 755.388 705.567 755.056 706.283L752.192 705.261C752.704 704.067 753.386 703.138 754.238 702.474C755.099 701.8 756.036 701.332 757.05 701.067C758.073 700.795 759.079 700.658 760.067 700.658C760.698 700.658 761.423 700.735 762.241 700.888C763.067 701.033 763.864 701.336 764.631 701.796C765.407 702.256 766.05 702.951 766.562 703.88C767.073 704.809 767.329 706.053 767.329 707.613V720.55H764.312V717.891H764.158C763.954 718.317 763.613 718.773 763.136 719.259C762.658 719.745 762.023 720.158 761.231 720.499C760.438 720.84 759.471 721.011 758.329 721.011ZM758.789 718.3C759.982 718.3 760.988 718.066 761.806 717.597C762.633 717.128 763.255 716.523 763.673 715.782C764.099 715.04 764.312 714.261 764.312 713.442V710.681C764.184 710.834 763.903 710.975 763.468 711.103C763.042 711.222 762.548 711.329 761.985 711.422C761.431 711.508 760.89 711.584 760.362 711.653C759.842 711.712 759.42 711.763 759.096 711.806C758.312 711.908 757.579 712.074 756.897 712.305C756.224 712.526 755.678 712.863 755.261 713.314C754.852 713.758 754.647 714.363 754.647 715.13C754.647 716.178 755.035 716.971 755.81 717.508C756.594 718.036 757.587 718.3 758.789 718.3ZM786.745 705.312L784.034 706.079C783.864 705.627 783.613 705.188 783.28 704.762C782.956 704.327 782.513 703.969 781.951 703.688C781.388 703.407 780.668 703.266 779.79 703.266C778.588 703.266 777.587 703.543 776.786 704.097C775.993 704.643 775.597 705.337 775.597 706.181C775.597 706.931 775.87 707.523 776.415 707.958C776.961 708.393 777.813 708.755 778.972 709.045L781.887 709.761C783.642 710.187 784.951 710.839 785.811 711.716C786.672 712.586 787.103 713.707 787.103 715.079C787.103 716.204 786.779 717.209 786.131 718.096C785.492 718.982 784.597 719.681 783.446 720.192C782.296 720.704 780.958 720.959 779.432 720.959C777.429 720.959 775.772 720.525 774.459 719.655C773.147 718.786 772.316 717.516 771.966 715.846L774.83 715.13C775.103 716.187 775.618 716.979 776.377 717.508C777.144 718.036 778.145 718.3 779.381 718.3C780.787 718.3 781.904 718.002 782.73 717.405C783.566 716.8 783.983 716.076 783.983 715.232C783.983 714.55 783.745 713.979 783.267 713.519C782.79 713.05 782.057 712.701 781.069 712.471L777.796 711.704C775.998 711.278 774.676 710.617 773.833 709.722C772.998 708.819 772.58 707.689 772.58 706.334C772.58 705.226 772.891 704.246 773.513 703.394C774.144 702.542 775 701.873 776.083 701.387C777.174 700.901 778.409 700.658 779.79 700.658C781.733 700.658 783.259 701.084 784.367 701.937C785.483 702.789 786.276 703.914 786.745 705.312ZM794.661 708.738V720.55H791.644V694.368H794.661V703.982H794.917C795.377 702.968 796.067 702.163 796.988 701.566C797.917 700.961 799.153 700.658 800.695 700.658C802.033 700.658 803.205 700.927 804.211 701.464C805.217 701.992 805.996 702.806 806.55 703.905C807.113 704.996 807.394 706.386 807.394 708.073V720.55H804.377V708.278C804.377 706.718 803.972 705.512 803.163 704.66C802.362 703.799 801.249 703.368 799.826 703.368C798.837 703.368 797.951 703.577 797.167 703.995C796.391 704.413 795.778 705.022 795.326 705.823C794.883 706.624 794.661 707.596 794.661 708.738ZM815.113 720.755C814.482 720.755 813.941 720.529 813.489 720.077C813.037 719.626 812.811 719.084 812.811 718.454C812.811 717.823 813.037 717.282 813.489 716.83C813.941 716.378 814.482 716.153 815.113 716.153C815.743 716.153 816.284 716.378 816.736 716.83C817.188 717.282 817.414 717.823 817.414 718.454C817.414 718.871 817.307 719.255 817.094 719.604C816.89 719.954 816.613 720.235 816.263 720.448C815.922 720.653 815.539 720.755 815.113 720.755Z" fill="black"/>
</g>
<path d="M893 274H772.681L737 312.333H772.681M893 274L841.553 312.333M893 274V321.5M841.553 312.333H817.489M841.553 312.333V321.5L817.489 339M817.489 312.333V339M817.489 312.333H772.681M817.489 339H772.681V312.333" stroke="black" stroke-width="6"/>
<path d="M766.5 571.252C761 560.752 757.258 619.318 737 633.752C716.742 648.186 733.13 636.336 723 643.752" stroke="black" stroke-width="4" stroke-linecap="round"/>
<path d="M632.5 571.252C627 560.752 623.258 619.318 603 633.752C582.742 648.186 599.13 636.336 589 643.752" stroke="black" stroke-width="4" stroke-linecap="round"/>
<circle cx="893.5" cy="322.5" r="4.5" fill="#FEB321"/>
<defs>
<filter id="filter0_f_301_2" x="579.954" y="751.818" width="329.195" height="17.0227" filterUnits="userSpaceOnUse" color-interpolation-filters="sRGB">
<feFlood flood-opacity="0" result="BackgroundImageFix"/>
<feBlend mode="normal" in="SourceGraphic" in2="BackgroundImageFix" result="shape"/>
<feGaussianBlur stdDeviation="0.5" result="effect1_foregroundBlur_301_2"/>
</filter>
<filter id="filter1_f_301_2" x="626.171" y="693.369" width="192.243" height="28.642" filterUnits="userSpaceOnUse" color-interpolation-filters="sRGB">
<feFlood flood-opacity="0" result="BackgroundImageFix"/>
<feBlend mode="normal" in="SourceGraphic" in2="BackgroundImageFix" result="shape"/>
<feGaussianBlur stdDeviation="0.5" result="effect1_foregroundBlur_301_2"/>
</filter>
</defs>
</svg>
