<svg width="689" height="654" viewBox="0 0 689 654" fill="none" xmlns="http://www.w3.org/2000/svg">
<path d="M548.221 113.895L23 483.591H282.787M548.221 113.895V483.591H398.561M548.221 113.895L282.787 483.591M282.787 483.591H398.561M282.787 483.591L329.379 634L398.561 483.591M227.632 438.747L237.863 381.621L268.558 434.484L278.789 367.979" stroke="#FEB321" stroke-width="14" stroke-linecap="round"/>
<path d="M681.021 3H475.845L415 68.3684H475.845M681.021 3L593.291 68.3684M681.021 3V84M593.291 68.3684H552.256M593.291 68.3684V84L552.256 113.842M552.256 68.3684V113.842M552.256 68.3684H475.845M552.256 113.842H475.845V68.3684" stroke="#FEB321" stroke-width="6"/>
<path d="M465.179 510.135C455.8 492.23 449.418 592.101 414.874 616.714C380.329 641.328 408.274 621.12 391 633.767" stroke="#FEB321" stroke-width="5" stroke-linecap="round"/>
<path d="M237.179 510.135C227.8 492.23 221.418 592.101 186.874 616.714C152.329 641.328 180.274 621.12 163 633.767" stroke="#FEB321" stroke-width="5" stroke-linecap="round"/>
<circle cx="680.674" cy="82.6737" r="7.67368" fill="#FEB321"/>
</svg>
